Cantarell-Bold.ufo
<glyph name="comma" format="1">
  <advance width="264"/>
  <unicode hex="002C"/>
  <outline>
    <contour>
      <point x="160" y="-178" type="line"/>
      <point x="211" y="-67"/>
      <point x="241" y="41"/>
      <point x="241" y="113" type="curve"/>
      <point x="69" y="113" type="line"/>
      <point x="69" y="15"/>
      <point x="53" y="-94"/>
      <point x="27" y="-178" type="curve"/>
    </contour>
  </outline>
</glyph>
<glyph name="slash" format="1">
  <advance width="364"/>
  <unicode hex="002F"/>
  <outline>
    <contour>
      <point x="148" y="-115" type="line"/>
      <point x="375" y="739" type="line"/>
      <point x="206" y="739" type="line"/>
      <point x="-10" y="-115" type="line"/>
    </contour>
  </outline>
</glyph>
<glyph name="E" format="1">
  <advance width="610"/>
  <unicode hex="0045"/>
  <note>
    E
  </note>
  <outline>
    <contour>
      <point x="240" y="0" type="line"/>
      <point x="240" y="694" type="line"/>
      <point x="67" y="694" type="line"/>
      <point x="67" y="0" type="line"/>
    </contour>
    <contour>
      <point x="565" y="0" type="line"/>
      <point x="565" y="152" type="line"/>
      <point x="147" y="152" type="line"/>
      <point x="147" y="0" type="line"/>
    </contour>
    <contour>
      <point x="537" y="276" type="line"/>
      <point x="537" y="428" type="line"/>
      <point x="147" y="428" type="line"/>
      <point x="147" y="276" type="line"/>
    </contour>
    <contour>
      <point x="565" y="542" type="line"/>
      <point x="565" y="694" type="line"/>
      <point x="147" y="694" type="line"/>
      <point x="147" y="542" type="line"/>
    </contour>
    <contour>
      <point x="518" y="10" type="move" name="ogonek"/>
    </contour>
    <contour>
      <point x="313" y="694" type="move" name="top"/>
    </contour>
    <contour>
      <point x="15" y="694" type="move" name="topleft"/>
    </contour>
    <contour>
      <point x="320" y="0" type="move" name="bottom"/>
    </contour>
  </outline>
</glyph>
<glyph name="H" format="1">
  <advance width="755"/>
  <unicode hex="0048"/>
  <note>
    H
  </note>
  <outline>
    <contour>
      <point x="688" y="0" type="line"/>
      <point x="688" y="694" type="line"/>
      <point x="512" y="694" type="line"/>
      <point x="512" y="0" type="line"/>
    </contour>
    <contour>
      <point x="243" y="0" type="line"/>
      <point x="243" y="694" type="line"/>
      <point x="67" y="694" type="line"/>
      <point x="67" y="0" type="line"/>
    </contour>
    <contour>
      <point x="532" y="274" type="line"/>
      <point x="532" y="430" type="line"/>
      <point x="222" y="430" type="line"/>
      <point x="222" y="274" type="line"/>
    </contour>
    <contour>
      <point x="377" y="0" type="move" name="bottom"/>
    </contour>
    <contour>
      <point x="377" y="694" type="move" name="top"/>
    </contour>
    <contour>
      <point x="7" y="694" type="move" name="topleft"/>
    </contour>
    <contour>
      <point x="377" y="566" type="move" name="center"/>
    </contour>
  </outline>
</glyph>
<glyph name="I" format="1">
  <advance width="310"/>
  <unicode hex="0049"/>
  <note>
    I
  </note>
  <outline>
    <contour>
      <point x="243" y="0" type="line"/>
      <point x="243" y="694" type="line"/>
      <point x="67" y="694" type="line"/>
      <point x="67" y="0" type="line"/>
    </contour>
    <contour>
      <point x="196" y="10" type="move" name="ogonek"/>
    </contour>
    <contour>
      <point x="155" y="694" type="move" name="top"/>
    </contour>
    <contour>
      <point x="24" y="694" type="move" name="topleft"/>
    </contour>
    <contour>
      <point x="155" y="0" type="move" name="bottom"/>
    </contour>
  </outline>
</glyph>
<glyph name="L" format="1">
  <advance width="537"/>
  <unicode hex="004C"/>
  <note>
    L
  </note>
  <outline>
    <contour>
      <point x="527" y="0" type="line"/>
      <point x="527" y="153" type="line"/>
      <point x="240" y="153" type="line"/>
      <point x="240" y="694" type="line"/>
      <point x="67" y="694" type="line"/>
      <point x="67" y="0" type="line"/>
    </contour>
    <contour>
      <point x="268" y="0" type="move" name="bottom"/>
    </contour>
    <contour>
      <point x="537" y="352" type="move" name="periodcentered"/>
    </contour>
    <contour>
      <point x="152" y="694" type="move" name="top"/>
    </contour>
    <contour>
      <point x="367" y="490" type="move" name="topright"/>
    </contour>
    <contour>
      <point x="166" y="377" type="move" name="center"/>
    </contour>
  </outline>
</glyph>
<glyph name="N" format="1">
  <advance width="780"/>
  <unicode hex="004E"/>
  <note>
    N
  </note>
  <outline>
    <contour>
      <point x="231" y="0" type="line"/>
      <point x="231" y="480" type="line"/>
      <point x="222" y="470" type="line"/>
      <point x="519" y="0" type="line"/>
      <point x="713" y="0" type="line"/>
      <point x="713" y="694" type="line"/>
      <point x="547" y="694" type="line"/>
      <point x="545" y="206" type="line"/>
      <point x="561" y="216" type="line"/>
      <point x="265" y="694" type="line"/>
      <point x="67" y="694" type="line"/>
      <point x="67" y="0" type="line"/>
    </contour>
    <contour>
      <point x="389" y="694" type="move" name="top"/>
    </contour>
    <contour>
      <point x="389" y="0" type="move" name="bottom"/>
    </contour>
  </outline>
</glyph>
<glyph name="O" format="1">
  <advance width="760"/>
  <unicode hex="004F"/>
  <note>
    O
  </note>
  <outline>
    <contour>
      <point x="590" y="-10"/>
      <point x="734" y="134"/>
      <point x="734" y="351" type="curve" smooth="yes"/>
      <point x="734" y="563"/>
      <point x="594" y="704"/>
      <point x="384" y="704" type="curve" smooth="yes"/>
      <point x="169" y="704"/>
      <point x="26" y="559"/>
      <point x="26" y="341" type="curve" smooth="yes"/>
      <point x="26" y="130"/>
      <point x="165" y="-10"/>
      <point x="373" y="-10" type="curve" smooth="yes"/>
    </contour>
    <contour>
      <point x="277" y="140"/>
      <point x="206" y="224"/>
      <point x="206" y="351" type="curve" smooth="yes"/>
      <point x="206" y="473"/>
      <point x="273" y="554"/>
      <point x="373" y="554" type="curve" smooth="yes"/>
      <point x="482" y="554"/>
      <point x="554" y="469"/>
      <point x="554" y="341" type="curve" smooth="yes"/>
      <point x="554" y="220"/>
      <point x="486" y="140"/>
      <point x="384" y="140" type="curve" smooth="yes"/>
    </contour>
    <contour>
      <point x="403" y="347" type="move" name="center"/>
    </contour>
    <contour>
      <point x="465" y="10" type="move" name="ogonek"/>
    </contour>
    <contour>
      <point x="380" y="0" type="move" name="bottom"/>
    </contour>
    <contour>
      <point x="564" y="141" type="move" name="Qtail"/>
    </contour>
    <contour>
      <point x="380" y="694" type="move" name="top"/>
    </contour>
    <contour>
      <point x="83" y="694" type="move" name="topleft"/>
    </contour>
    <contour>
      <point x="626" y="694" type="move" name="topright"/>
    </contour>
  </outline>
</glyph>
<glyph name="U" format="1">
  <advance width="709"/>
  <unicode hex="0055"/>
  <note>
    U
  </note>
  <outline>
    <contour>
      <point x="536" y="-10"/>
      <point x="658" y="107"/>
      <point x="658" y="287" type="curve" smooth="yes"/>
      <point x="658" y="694" type="line"/>
      <point x="487" y="694" type="line"/>
      <point x="487" y="267" type="line" smooth="yes"/>
      <point x="487" y="187"/>
      <point x="442" y="140"/>
      <point x="366" y="140" type="curve" smooth="yes"/>
      <point x="277" y="140"/>
      <point x="225" y="195"/>
      <point x="225" y="287" type="curve" smooth="yes"/>
      <point x="225" y="694" type="line"/>
      <point x="52" y="694" type="line"/>
      <point x="52" y="277" type="line" smooth="yes"/>
      <point x="52" y="98"/>
      <point x="163" y="-10"/>
      <point x="347" y="-10" type="curve" smooth="yes"/>
    </contour>
    <contour>
      <point x="451" y="10" type="move" name="ogonek"/>
    </contour>
    <contour>
      <point x="355" y="694" type="move" name="top"/>
    </contour>
    <contour>
      <point x="658" y="694" type="move" name="topright"/>
    </contour>
    <contour>
      <point x="355" y="0" type="move" name="bottom"/>
    </contour>
  </outline>
</glyph>
<glyph name="Y" format="1">
  <advance width="653"/>
  <unicode hex="0059"/>
  <note>
    Y
  </note>
  <outline>
    <contour>
      <point x="418" y="0" type="line"/>
      <point x="418" y="247" type="line"/>
      <point x="672" y="694" type="line"/>
      <point x="478" y="694" type="line"/>
      <point x="326" y="380" type="line"/>
      <point x="348" y="380" type="line"/>
      <point x="184" y="694" type="line"/>
      <point x="-20" y="694" type="line"/>
      <point x="245" y="251" type="line"/>
      <point x="245" y="0" type="line"/>
    </contour>
    <contour>
      <point x="324" y="694" type="move" name="top"/>
    </contour>
    <contour>
      <point x="324" y="0" type="move" name="bottom"/>
    </contour>
    <contour>
      <point x="4" y="694" type="move" name="topleft"/>
    </contour>
  </outline>
</glyph>
<glyph name="h" format="1">
  <advance width="579"/>
  <unicode hex="0068"/>
  <note>
    h
  </note>
  <outline>
    <contour>
      <point x="224" y="0" type="line"/>
      <point x="224" y="739" type="line"/>
      <point x="54" y="739" type="line"/>
      <point x="54" y="0" type="line"/>
    </contour>
    <contour>
      <point x="536" y="0" type="line"/>
      <point x="536" y="294" type="line" smooth="yes"/>
      <point x="536" y="421"/>
      <point x="469" y="496"/>
      <point x="357" y="496" type="curve" smooth="yes"/>
      <point x="287" y="496"/>
      <point x="227" y="465"/>
      <point x="187" y="398" type="curve"/>
      <point x="206" y="295" type="line"/>
      <point x="231" y="332"/>
      <point x="258" y="346"/>
      <point x="292" y="346" type="curve" smooth="yes"/>
      <point x="342" y="346"/>
      <point x="363" y="320"/>
      <point x="363" y="265" type="curve" smooth="yes"/>
      <point x="363" y="0" type="line"/>
    </contour>
    <contour>
      <point x="165" y="595" type="move" name="center"/>
    </contour>
    <contour>
      <point x="293" y="0" type="move" name="bottom"/>
    </contour>
    <contour>
      <point x="313" y="739" type="move" name="top"/>
    </contour>
  </outline>
</glyph>
<glyph name="i" format="1">
  <advance width="287"/>
  <unicode hex="0069"/>
  <note>
    i
  </note>
  <outline>
    <component base="idotless"/>
    <component base="uni0307"/>
    <contour>
      <point x="155" y="0" type="move" name="bottom"/>
    </contour>
  </outline>
</glyph>
<glyph name="l" format="1">
  <advance width="310"/>
  <unicode hex="006C"/>
  <note>
    l
  </note>
  <outline>
    <contour>
      <point x="245" y="-8"/>
      <point x="284" y="-1"/>
      <point x="317" y="11" type="curve"/>
      <point x="283" y="125" type="line"/>
      <point x="273" y="122"/>
      <point x="262" y="121"/>
      <point x="256" y="121" type="curve" smooth="yes"/>
      <point x="230" y="121"/>
      <point x="216" y="137"/>
      <point x="216" y="168" type="curve" smooth="yes"/>
      <point x="216" y="739" type="line"/>
      <point x="46" y="739" type="line"/>
      <point x="46" y="147" type="line" smooth="yes"/>
      <point x="46" y="48"/>
      <point x="105" y="-8"/>
      <point x="208" y="-8" type="curve" smooth="yes"/>
    </contour>
    <contour>
      <point x="168" y="0" type="move" name="bottom"/>
    </contour>
    <contour>
      <point x="310" y="363" type="move" name="periodcentered"/>
    </contour>
    <contour>
      <point x="127" y="739" type="move" name="top"/>
    </contour>
    <contour>
      <point x="300" y="490" type="move" name="topright"/>
    </contour>
    <contour>
      <point x="132" y="366" type="move" name="center"/>
    </contour>
  </outline>
</glyph>
<glyph name="o" format="1">
  <advance width="567"/>
  <unicode hex="006F"/>
  <note>
    o
  </note>
  <outline>
    <contour>
      <point x="439" y="-10"/>
      <point x="549" y="96"/>
      <point x="549" y="254" type="curve" smooth="yes"/>
      <point x="549" y="403"/>
      <point x="449" y="500"/>
      <point x="293" y="500" type="curve" smooth="yes"/>
      <point x="128" y="500"/>
      <point x="18" y="394"/>
      <point x="18" y="235" type="curve" smooth="yes"/>
      <point x="18" y="87"/>
      <point x="118" y="-10"/>
      <point x="275" y="-10" type="curve" smooth="yes"/>
    </contour>
    <contour>
      <point x="228" y="134"/>
      <point x="194" y="176"/>
      <point x="194" y="246" type="curve" smooth="yes"/>
      <point x="194" y="315"/>
      <point x="226" y="356"/>
      <point x="281" y="356" type="curve" smooth="yes"/>
      <point x="339" y="356"/>
      <point x="373" y="313"/>
      <point x="373" y="240" type="curve" smooth="yes"/>
      <point x="373" y="173"/>
      <point x="341" y="134"/>
      <point x="286" y="134" type="curve" smooth="yes"/>
    </contour>
    <contour>
      <point x="282" y="0" type="move" name="bottom"/>
    </contour>
    <contour>
      <point x="368" y="10" type="move" name="ogonek"/>
    </contour>
    <contour>
      <point x="282" y="490" type="move" name="top"/>
    </contour>
    <contour>
      <point x="478" y="490" type="move" name="topright"/>
    </contour>
    <contour>
      <point x="282" y="245" type="move" name="center"/>
    </contour>
  </outline>
</glyph>
<glyph name="v" format="1">
  <advance width="534"/>
  <unicode hex="0076"/>
  <note>
    v
  </note>
  <outline>
    <contour>
      <point x="353" y="0" type="line"/>
      <point x="543" y="490" type="line"/>
      <point x="369" y="490" type="line"/>
      <point x="258" y="124" type="line"/>
      <point x="281" y="124" type="line"/>
      <point x="182" y="490" type="line"/>
      <point x="-8" y="490" type="line"/>
      <point x="180" y="0" type="line"/>
    </contour>
    <contour>
      <point x="265" y="490" type="move" name="top"/>
    </contour>
    <contour>
      <point x="265" y="0" type="move" name="bottom"/>
    </contour>
  </outline>
</glyph>
<glyph name="idotless" format="1">
  <advance width="287"/>
  <unicode hex="0131"/>
  <note>
    dotlessi
  </note>
  <outline>
    <contour>
      <point x="230" y="0" type="line"/>
      <point x="230" y="490" type="line"/>
      <point x="57" y="490" type="line"/>
      <point x="57" y="0" type="line"/>
    </contour>
    <contour>
      <point x="183" y="10" type="move" name="ogonek"/>
    </contour>
    <contour>
      <point x="144" y="0" type="move" name="bottom"/>
    </contour>
    <contour>
      <point x="144" y="490" type="move" name="top"/>
    </contour>
  </outline>
</glyph>
<glyph name="gravecomb" format="1">
  <advance width="287"/>
  <unicode hex="0300"/>
  <outline>
    <contour>
      <point x="262" y="599" type="line"/>
      <point x="144" y="778" type="line"/>
      <point x="18" y="676" type="line"/>
      <point x="181" y="532" type="line"/>
    </contour>
    <contour>
      <point x="176" y="724" type="move" name="top"/>
    </contour>
    <contour>
      <point x="285" y="566" type="move" name="top_dot"/>
    </contour>
    <contour>
      <point x="198" y="490" type="move" name="_top"/>
    </contour>
  </outline>
</glyph>
<glyph name="acutecomb" format="1">
  <advance width="287"/>
  <unicode hex="0301"/>
  <outline>
    <contour>
      <point x="267" y="676" type="line"/>
      <point x="141" y="778" type="line"/>
      <point x="23" y="599" type="line"/>
      <point x="104" y="532" type="line"/>
    </contour>
    <contour>
      <point x="114" y="724" type="move" name="top"/>
    </contour>
    <contour>
      <point x="-6" y="566" type="move" name="top_dot"/>
    </contour>
    <contour>
      <point x="96" y="490" type="move" name="_top"/>
    </contour>
  </outline>
</glyph>
<glyph name="uni0304" format="1">
  <advance width="484"/>
  <unicode hex="0304"/>
  <outline>
    <contour>
      <point x="422" y="577" type="line"/>
      <point x="422" y="713" type="line"/>
      <point x="62" y="713" type="line"/>
      <point x="62" y="577" type="line"/>
    </contour>
    <contour>
      <point x="242" y="690" type="move" name="top"/>
    </contour>
    <contour>
      <point x="242" y="490" type="move" name="_top"/>
    </contour>
  </outline>
</glyph>
<glyph name="uni0306" format="1">
  <advance width="440"/>
  <unicode hex="0306"/>
  <outline>
    <contour>
      <point x="318" y="541"/>
      <point x="393" y="609"/>
      <point x="410" y="716" type="curve"/>
      <point x="329" y="772" type="line"/>
      <point x="324" y="708"/>
      <point x="286" y="671"/>
      <point x="236" y="671" type="curve" smooth="yes"/>
      <point x="184" y="671"/>
      <point x="145" y="711"/>
      <point x="139" y="771" type="curve"/>
      <point x="15" y="694" type="line"/>
      <point x="29" y="599"/>
      <point x="112" y="541"/>
      <point x="217" y="541" type="curve" smooth="yes"/>
    </contour>
    <contour>
      <point x="216" y="729" type="move" name="top"/>
    </contour>
    <contour>
      <point x="216" y="490" type="move" name="_top"/>
    </contour>
  </outline>
</glyph>
<glyph name="uni0307" format="1">
  <advance width="288"/>
  <unicode hex="0307"/>
  <outline>
    <contour>
      <point x="203" y="557"/>
      <point x="243" y="597"/>
      <point x="243" y="656" type="curve" smooth="yes"/>
      <point x="243" y="716"/>
      <point x="203" y="756"/>
      <point x="144" y="756" type="curve" smooth="yes"/>
      <point x="85" y="756"/>
      <point x="45" y="716"/>
      <point x="45" y="656" type="curve" smooth="yes"/>
      <point x="45" y="597"/>
      <point x="85" y="557"/>
      <point x="144" y="557" type="curve" smooth="yes"/>
    </contour>
    <contour>
      <point x="144" y="718" type="move" name="top"/>
    </contour>
    <contour>
      <point x="144" y="490" type="move" name="_top"/>
    </contour>
  </outline>
</glyph>
<glyph name="uni030C" format="1">
  <advance width="410"/>
  <unicode hex="030C"/>
  <outline>
    <contour>
      <point x="252" y="547" type="line"/>
      <point x="394" y="714" type="line"/>
      <point x="326" y="772" type="line"/>
      <point x="218" y="679" type="line"/>
      <point x="115" y="773" type="line"/>
      <point x="15" y="683" type="line"/>
      <point x="166" y="547" type="line"/>
    </contour>
    <contour>
      <point x="206" y="690" type="move" name="top"/>
    </contour>
    <contour>
      <point x="206" y="490" type="move" name="_top"/>
    </contour>
  </outline>
</glyph>
<glyph name="uni030D" format="1">
  <advance width="224"/>
  <unicode hex="030D"/>
  <outline>
    <contour>
      <point x="45" y="760" type="line"/>
      <point x="54" y="556" type="line"/>
      <point x="170" y="556" type="line"/>
      <point x="180" y="760" type="line"/>
    </contour>
    <contour>
      <point x="113" y="760" type="move" name="top"/>
    </contour>
    <contour>
      <point x="113" y="490" type="move" name="_top"/>
    </contour>
  </outline>
</glyph>
<glyph name="uni0311" format="1">
  <advance width="452"/>
  <unicode hex="0311"/>
  <outline>
    <contour>
      <point x="130" y="601"/>
      <point x="167" y="639"/>
      <point x="215" y="639" type="curve" smooth="yes"/>
      <point x="264" y="639"/>
      <point x="304" y="599"/>
      <point x="309" y="539" type="curve"/>
      <point x="433" y="616" type="line"/>
      <point x="420" y="711"/>
      <point x="336" y="769"/>
      <point x="235" y="769" type="curve" smooth="yes"/>
      <point x="135" y="769"/>
      <point x="62" y="701"/>
      <point x="45" y="594" type="curve"/>
      <point x="126" y="538" type="line"/>
    </contour>
    <contour>
      <point x="226" y="709" type="move" name="top"/>
    </contour>
    <contour>
      <point x="226" y="490" type="move" name="_top"/>
    </contour>
  </outline>
</glyph>
<glyph name="uni0312" format="1">
  <advance width="285"/>
  <unicode hex="0312"/>
  <outline>
    <contour>
      <point x="99" y="730" type="line"/>
      <point x="64" y="692"/>
      <point x="48" y="641"/>
      <point x="48" y="568" type="curve"/>
      <point x="215" y="568" type="line"/>
      <point x="215" y="637"/>
      <point x="226" y="697"/>
      <point x="240" y="730" type="curve"/>
    </contour>
    <contour>
      <point x="146" y="739" type="move" name="top"/>
    </contour>
    <contour>
      <point x="146" y="490" type="move" name="_top"/>
    </contour>
  </outline>
</glyph>
<glyph name="uni031B" format="1">
  <advance width="288"/>
  <unicode hex="031B"/>
  <outline>
    <contour>
      <point x="201" y="303"/>
      <point x="287" y="368"/>
      <point x="287" y="480" type="curve" smooth="yes"/>
      <point x="287" y="517"/>
      <point x="278" y="552"/>
      <point x="258" y="582" type="curve"/>
      <point x="102" y="582" type="line"/>
      <point x="121" y="554"/>
      <point x="131" y="522"/>
      <point x="131" y="487" type="curve" smooth="yes"/>
      <point x="131" y="433"/>
      <point x="107" y="397"/>
      <point x="71" y="397" type="curve"/>
      <point x="71" y="303" type="line"/>
    </contour>
    <contour>
      <point x="71" y="482" type="move" name="_topright"/>
    </contour>
    <contour>
      <point x="133" y="482" type="move" name="topright"/>
    </contour>
  </outline>
</glyph>
<glyph name="uni0324" format="1">
  <advance width="550"/>
  <unicode hex="0324"/>
  <outline>
    <contour>
      <point x="209" y="-227"/>
      <point x="249" y="-187"/>
      <point x="249" y="-128" type="curve" smooth="yes"/>
      <point x="249" y="-68"/>
      <point x="209" y="-28"/>
      <point x="150" y="-28" type="curve" smooth="yes"/>
      <point x="91" y="-28"/>
      <point x="51" y="-68"/>
      <point x="51" y="-128" type="curve" smooth="yes"/>
      <point x="51" y="-187"/>
      <point x="91" y="-227"/>
      <point x="150" y="-227" type="curve" smooth="yes"/>
    </contour>
    <contour>
      <point x="459" y="-227"/>
      <point x="499" y="-187"/>
      <point x="499" y="-128" type="curve" smooth="yes"/>
      <point x="499" y="-68"/>
      <point x="459" y="-28"/>
      <point x="400" y="-28" type="curve" smooth="yes"/>
      <point x="341" y="-28"/>
      <point x="301" y="-68"/>
      <point x="301" y="-128" type="curve" smooth="yes"/>
      <point x="301" y="-187"/>
      <point x="341" y="-227"/>
      <point x="400" y="-227" type="curve" smooth="yes"/>
    </contour>
    <contour>
      <point x="275" y="0" type="move" name="_bottom"/>
    </contour>
    <contour>
      <point x="275" y="-203" type="move" name="bottom"/>
    </contour>
  </outline>
</glyph>
<glyph name="uni0329" format="1">
  <advance width="224"/>
  <unicode hex="0329"/>
  <outline>
    <contour>
      <point x="180" y="-244" type="line"/>
      <point x="170" y="-40" type="line"/>
      <point x="54" y="-40" type="line"/>
      <point x="45" y="-244" type="line"/>
    </contour>
    <contour>
      <point x="113" y="0" type="move" name="_bottom"/>
    </contour>
    <contour>
      <point x="113" y="-244" type="move" name="bottom"/>
    </contour>
  </outline>
</glyph>
<glyph name="uni0331" format="1">
  <advance width="489"/>
  <unicode hex="0331"/>
  <outline>
    <contour>
      <point x="421" y="-206" type="line"/>
      <point x="421" y="-71" type="line"/>
      <point x="68" y="-71" type="line"/>
      <point x="68" y="-206" type="line"/>
    </contour>
    <contour>
      <point x="245" y="0" type="move" name="_bottom"/>
    </contour>
    <contour>
      <point x="245" y="-206" type="move" name="bottom"/>
    </contour>
  </outline>
</glyph>
<glyph name="strokeshortcomb" format="1">
  <advance width="458"/>
  <unicode hex="0335"/>
  <outline>
    <contour>
      <point x="391" y="245" type="line"/>
      <point x="391" y="352" type="line"/>
      <point x="38" y="352" type="line"/>
      <point x="38" y="245" type="line"/>
    </contour>
    <contour>
      <point x="215" y="299" type="move" name="_center"/>
    </contour>
  </outline>
</glyph>
<glyph name="slashshortcomb" format="1">
  <advance width="393"/>
  <unicode hex="0337"/>
  <outline>
    <contour>
      <point x="396" y="292" type="line"/>
      <point x="339" y="399" type="line"/>
      <point x="31" y="238" type="line"/>
      <point x="93" y="132" type="line"/>
    </contour>
    <contour>
      <point x="202" y="247" type="move" name="_center"/>
    </contour>
  </outline>
</glyph>
<glyph name="slashlongcomb" format="1">
  <advance width="464"/>
  <unicode hex="0338"/>
  <outline>
    <contour>
      <point x="459" y="495" type="line"/>
      <point x="387" y="538" type="line"/>
      <point x="4" y="-33" type="line"/>
      <point x="74" y="-76" type="line"/>
    </contour>
    <contour>
      <point x="229" y="231" type="move" name="_center"/>
    </contour>
  </outline>
</glyph>
<glyph name="iota" format="1">
  <advance width="310"/>
  <unicode hex="03B9"/>
  <outline>
    <contour>
      <point x="245" y="-8"/>
      <point x="284" y="-1"/>
      <point x="317" y="11" type="curve"/>
      <point x="283" y="125" type="line"/>
      <point x="273" y="122"/>
      <point x="262" y="121"/>
      <point x="256" y="121" type="curve" smooth="yes"/>
      <point x="230" y="121"/>
      <point x="216" y="137"/>
      <point x="216" y="168" type="curve" smooth="yes"/>
      <point x="216" y="490" type="line"/>
      <point x="46" y="490" type="line"/>
      <point x="46" y="147" type="line" smooth="yes"/>
      <point x="46" y="48"/>
      <point x="105" y="-8"/>
      <point x="208" y="-8" type="curve" smooth="yes"/>
    </contour>
    <contour>
      <point x="131" y="490" type="move" name="top"/>
    </contour>
  </outline>
</glyph>
<glyph name="pi" format="1">
  <advance width="695"/>
  <unicode hex="03C0"/>
  <outline>
    <contour>
      <point x="595" y="-8"/>
      <point x="630" y="1"/>
      <point x="671" y="21" type="curve"/>
      <point x="642" y="139" type="line"/>
      <point x="624" y="134"/>
      <point x="609" y="130"/>
      <point x="597" y="130" type="curve" smooth="yes"/>
      <point x="565" y="130"/>
      <point x="547" y="157"/>
      <point x="547" y="201" type="curve" smooth="yes"/>
      <point x="547" y="425" type="line"/>
      <point x="374" y="425" type="line"/>
      <point x="374" y="182" type="line" smooth="yes"/>
      <point x="374" y="63"/>
      <point x="440" y="-8"/>
      <point x="555" y="-8" type="curve" smooth="yes"/>
    </contour>
    <contour>
      <point x="278" y="0" type="line"/>
      <point x="278" y="425" type="line"/>
      <point x="105" y="425" type="line"/>
      <point x="105" y="0" type="line"/>
    </contour>
    <contour>
      <point x="649" y="355" type="line"/>
      <point x="649" y="490" type="line"/>
      <point x="14" y="490" type="line"/>
      <point x="14" y="355" type="line"/>
    </contour>
  </outline>
</glyph>
<glyph name="uni0402" format="1">
  <advance width="806"/>
  <unicode hex="0402"/>
  <outline>
    <contour>
      <point x="679" y="-10"/>
      <point x="790" y="84"/>
      <point x="790" y="225" type="curve" smooth="yes"/>
      <point x="790" y="355"/>
      <point x="694" y="441"/>
      <point x="552" y="441" type="curve" smooth="yes"/>
      <point x="445" y="441"/>
      <point x="356" y="391"/>
      <point x="304" y="302" type="curve"/>
      <point x="328" y="199" type="line"/>
      <point x="362" y="259"/>
      <point x="424" y="291"/>
      <point x="499" y="291" type="curve" smooth="yes"/>
      <point x="568" y="291"/>
      <point x="611" y="264"/>
      <point x="611" y="219" type="curve" smooth="yes"/>
      <point x="611" y="176"/>
      <point x="572" y="147"/>
      <point x="484" y="147" type="curve"/>
      <point x="484" y="-10" type="line"/>
    </contour>
    <contour>
      <point x="388" y="0" type="line"/>
      <point x="388" y="660" type="line"/>
      <point x="218" y="660" type="line"/>
      <point x="218" y="0" type="line"/>
    </contour>
    <contour>
      <point x="618" y="542" type="line"/>
      <point x="618" y="694" type="line"/>
      <point x="10" y="694" type="line"/>
      <point x="10" y="542" type="line"/>
    </contour>
  </outline>
</glyph>
<glyph name="uni0413" format="1">
  <advance width="553"/>
  <unicode hex="0413"/>
  <outline>
    <contour>
      <point x="244" y="0" type="line"/>
      <point x="244" y="537" type="line"/>
      <point x="553" y="537" type="line"/>
      <point x="553" y="694" type="line"/>
      <point x="68" y="694" type="line"/>
      <point x="68" y="0" type="line"/>
    </contour>
    <contour>
      <point x="284" y="694" type="move" name="top"/>
    </contour>
    <contour>
      <point x="187" y="0" type="move" name="bottomright"/>
    </contour>
  </outline>
</glyph>
<glyph name="uni0418" format="1">
  <advance width="770"/>
  <unicode hex="0418"/>
  <outline>
    <contour>
      <point x="254" y="0" type="line"/>
      <point x="546" y="470" type="line"/>
      <point x="531" y="480" type="line"/>
      <point x="531" y="0" type="line"/>
      <point x="703" y="0" type="line"/>
      <point x="703" y="694" type="line"/>
      <point x="512" y="694" type="line"/>
      <point x="221" y="216" type="line"/>
      <point x="239" y="206" type="line"/>
      <point x="239" y="694" type="line"/>
      <point x="67" y="694" type="line"/>
      <point x="67" y="0" type="line"/>
    </contour>
    <contour>
      <point x="385" y="694" type="move" name="top"/>
    </contour>
    <contour>
      <point x="750" y="0" type="move" name="bottomright"/>
    </contour>
  </outline>
</glyph>
<glyph name="uni041B" format="1">
  <advance width="728"/>
  <unicode hex="041B"/>
  <outline>
    <contour>
      <point x="32" y="-10" type="line"/>
      <point x="206" y="20"/>
      <point x="309" y="163"/>
      <point x="309" y="374" type="curve" smooth="yes"/>
      <point x="309" y="543" type="line"/>
      <point x="490" y="543" type="line"/>
      <point x="490" y="0" type="line"/>
      <point x="661" y="0" type="line"/>
      <point x="661" y="694" type="line"/>
      <point x="145" y="694" type="line"/>
      <point x="145" y="370" type="line" smooth="yes"/>
      <point x="145" y="246"/>
      <point x="93" y="162"/>
      <point x="7" y="145" type="curve"/>
    </contour>
  </outline>
</glyph>
<glyph name="uni041F" format="1">
  <advance width="736"/>
  <unicode hex="041F"/>
  <outline>
    <contour>
      <point x="238" y="0" type="line"/>
      <point x="238" y="543" type="line"/>
      <point x="498" y="543" type="line"/>
      <point x="498" y="0" type="line"/>
      <point x="669" y="0" type="line"/>
      <point x="669" y="694" type="line"/>
      <point x="67" y="694" type="line"/>
      <point x="67" y="0" type="line"/>
    </contour>
    <contour>
      <point x="716" y="0" type="move" name="bottomright"/>
    </contour>
  </outline>
</glyph>
<glyph name="uni0421" format="1">
  <advance width="624"/>
  <unicode hex="0421"/>
  <outline>
    <component base="C"/>
    <contour>
      <point x="342" y="0" type="move" name="bottomright"/>
    </contour>
  </outline>
</glyph>
<glyph name="uni0426" format="1">
  <advance width="779"/>
  <unicode hex="0426"/>
  <outline>
    <contour>
      <point x="769" y="-187" type="line"/>
      <point x="769" y="151" type="line"/>
      <point x="238" y="151" type="line"/>
      <point x="238" y="694" type="line"/>
      <point x="67" y="694" type="line"/>
      <point x="67" y="0" type="line"/>
      <point x="607" y="0" type="line"/>
      <point x="607" y="-187" type="line"/>
    </contour>
    <contour>
      <point x="656" y="72" type="line"/>
      <point x="656" y="694" type="line"/>
      <point x="485" y="694" type="line"/>
      <point x="485" y="72" type="line"/>
    </contour>
  </outline>
</glyph>
<glyph name="uni0429" format="1">
  <advance width="1121"/>
  <unicode hex="0429"/>
  <outline>
    <contour>
      <point x="1111" y="-187" type="line"/>
      <point x="1111" y="151" type="line"/>
      <point x="237" y="151" type="line"/>
      <point x="237" y="694" type="line"/>
      <point x="67" y="694" type="line"/>
      <point x="67" y="0" type="line"/>
      <point x="949" y="0" type="line"/>
      <point x="949" y="-187" type="line"/>
    </contour>
    <contour>
      <point x="617" y="72" type="line"/>
      <point x="617" y="694" type="line"/>
      <point x="447" y="694" type="line"/>
      <point x="447" y="72" type="line"/>
    </contour>
    <contour>
      <point x="998" y="72" type="line"/>
      <point x="998" y="694" type="line"/>
      <point x="828" y="694" type="line"/>
      <point x="828" y="72" type="line"/>
    </contour>
  </outline>
</glyph>
<glyph name="uni042B" format="1">
  <advance width="907"/>
  <unicode hex="042B"/>
  <outline>
    <contour>
      <point x="311" y="0" type="line" smooth="yes"/>
      <point x="494" y="0"/>
      <point x="602" y="90"/>
      <point x="602" y="242" type="curve" smooth="yes"/>
      <point x="602" y="369"/>
      <point x="506" y="454"/>
      <point x="362" y="454" type="curve" smooth="yes"/>
      <point x="180" y="454" type="line"/>
      <point x="180" y="322" type="line"/>
      <point x="324" y="322" type="line" smooth="yes"/>
      <point x="383" y="322"/>
      <point x="422" y="283"/>
      <point x="422" y="225" type="curve" smooth="yes"/>
      <point x="422" y="169"/>
      <point x="389" y="136"/>
      <point x="334" y="136" type="curve" smooth="yes"/>
      <point x="237" y="136" type="line"/>
      <point x="237" y="694" type="line"/>
      <point x="67" y="694" type="line"/>
      <point x="67" y="0" type="line"/>
    </contour>
    <contour>
      <point x="840" y="-3" type="line"/>
      <point x="840" y="691" type="line"/>
      <point x="664" y="691" type="line"/>
      <point x="664" y="-3" type="line"/>
    </contour>
    <contour>
      <point x="464" y="694" type="move" name="top"/>
    </contour>
  </outline>
</glyph>
<glyph name="uni0430" format="1">
  <advance width="528"/>
  <unicode hex="0430"/>
  <outline>
    <component base="a"/>
    <contour>
      <point x="264" y="490" type="move" name="top"/>
    </contour>
  </outline>
</glyph>
<glyph name="uni0431" format="1">
  <advance width="567"/>
  <unicode hex="0431"/>
  <outline>
    <contour>
      <point x="452" y="-10"/>
      <point x="548" y="85"/>
      <point x="548" y="244" type="curve" smooth="yes"/>
      <point x="548" y="382"/>
      <point x="476" y="466"/>
      <point x="353" y="466" type="curve" smooth="yes"/>
      <point x="266" y="466"/>
      <point x="199" y="421"/>
      <point x="159" y="335" type="curve"/>
      <point x="202" y="275" type="line"/>
      <point x="229" y="309"/>
      <point x="266" y="329"/>
      <point x="300" y="329" type="curve" smooth="yes"/>
      <point x="350" y="329"/>
      <point x="380" y="293"/>
      <point x="380" y="231" type="curve" smooth="yes"/>
      <point x="380" y="171"/>
      <point x="353" y="133"/>
      <point x="305" y="133" type="curve" smooth="yes"/>
      <point x="236" y="133"/>
      <point x="200" y="211"/>
      <point x="200" y="354" type="curve" smooth="yes"/>
      <point x="200" y="500"/>
      <point x="204" y="515"/>
      <point x="283" y="533" type="curve" smooth="yes"/>
      <point x="386" y="557"/>
      <point x="461" y="582"/>
      <point x="499" y="610" type="curve"/>
      <point x="448" y="749" type="line"/>
      <point x="420" y="731"/>
      <point x="365" y="710"/>
      <point x="272" y="683" type="curve" smooth="yes"/>
      <point x="85" y="629"/>
      <point x="30" y="548"/>
      <point x="30" y="335" type="curve" smooth="yes"/>
      <point x="30" y="109"/>
      <point x="122" y="-10"/>
      <point x="297" y="-10" type="curve" smooth="yes"/>
    </contour>
  </outline>
</glyph>
<glyph name="uni0433" format="1">
  <advance width="80"/>
  <unicode hex="0433"/>
  <outline>
    <contour>
      <point x="228" y="0" type="line"/>
      <point x="228" y="356" type="line"/>
      <point x="452" y="356" type="line"/>
      <point x="452" y="490" type="line"/>
      <point x="55" y="490" type="line"/>
      <point x="55" y="0" type="line"/>
    </contour>
    <contour>
      <point x="228" y="490" type="move" name="top"/>
    </contour>
    <contour>
      <point x="174" y="0" type="move" name="bottomright"/>
    </contour>
  </outline>
</glyph>
<glyph name="uni0434" format="1">
  <advance width="80"/>
  <unicode hex="0434"/>
  <outline>
    <contour>
      <point x="185" y="64"/>
      <point x="261" y="168"/>
      <point x="261" y="319" type="curve" smooth="yes"/>
      <point x="261" y="355" type="line"/>
      <point x="360" y="355" type="line"/>
      <point x="360" y="70" type="line"/>
      <point x="520" y="70" type="line"/>
      <point x="520" y="490" type="line"/>
      <point x="106" y="490" type="line"/>
      <point x="106" y="315" type="line" smooth="yes"/>
      <point x="106" y="229"/>
      <point x="76" y="160"/>
      <point x="22" y="134" type="curve"/>
      <point x="56" y="41" type="line"/>
    </contour>
    <contour>
      <point x="157" y="-135" type="line"/>
      <point x="157" y="0" type="line"/>
      <point x="455" y="0" type="line"/>
      <point x="455" y="-135" type="line"/>
      <point x="608" y="-135" type="line"/>
      <point x="608" y="135" type="line"/>
      <point x="3" y="135" type="line"/>
      <point x="3" y="-135" type="line"/>
    </contour>
  </outline>
</glyph>
<glyph name="uni0435" format="1">
  <advance width="526"/>
  <unicode hex="0435"/>
  <outline>
    <component base="e"/>
    <contour>
      <point x="263" y="490" type="move" name="top"/>
    </contour>
  </outline>
</glyph>
<glyph name="uni0438" format="1">
  <advance width="80"/>
  <unicode hex="0438"/>
  <outline>
    <contour>
      <point x="202" y="0" type="line"/>
      <point x="407" y="301" type="line"/>
      <point x="382" y="309" type="line"/>
      <point x="382" y="0" type="line"/>
      <point x="536" y="0" type="line"/>
      <point x="536" y="490" type="line"/>
      <point x="385" y="490" type="line"/>
      <point x="180" y="181" type="line"/>
      <point x="210" y="173" type="line"/>
      <point x="210" y="490" type="line"/>
      <point x="54" y="490" type="line"/>
      <point x="54" y="0" type="line"/>
    </contour>
    <contour>
      <point x="295" y="490" type="move" name="top"/>
    </contour>
    <contour>
      <point x="565" y="0" type="move" name="bottomright"/>
    </contour>
  </outline>
</glyph>
<glyph name="uni043B" format="1">
  <advance width="80"/>
  <unicode hex="043B"/>
  <outline>
    <contour>
      <point x="24" y="-17" type="line"/>
      <point x="165" y="9"/>
      <point x="248" y="117"/>
      <point x="248" y="270" type="curve" smooth="yes"/>
      <point x="248" y="351" type="line"/>
      <point x="352" y="351" type="line"/>
      <point x="352" y="0" type="line"/>
      <point x="518" y="0" type="line"/>
      <point x="518" y="491" type="line"/>
      <point x="95" y="491" type="line"/>
      <point x="95" y="264" type="line" smooth="yes"/>
      <point x="95" y="197"/>
      <point x="57" y="146"/>
      <point x="0" y="135" type="curve"/>
    </contour>
  </outline>
</glyph>
<glyph name="uni043C" format="1">
  <advance width="75"/>
  <unicode hex="043C"/>
  <outline>
    <contour>
      <point x="197" y="0" type="line"/>
      <point x="197" y="286" type="line"/>
      <point x="182" y="261" type="line"/>
      <point x="288" y="76" type="line"/>
      <point x="376" y="76" type="line"/>
      <point x="475" y="261" type="line"/>
      <point x="467" y="281" type="line"/>
      <point x="467" y="0" type="line"/>
      <point x="611" y="0" type="line"/>
      <point x="611" y="490" type="line"/>
      <point x="470" y="490" type="line"/>
      <point x="311" y="176" type="line"/>
      <point x="370" y="176" type="line"/>
      <point x="196" y="490" type="line"/>
      <point x="54" y="490" type="line"/>
      <point x="54" y="0" type="line"/>
    </contour>
  </outline>
</glyph>
<glyph name="uni043D" format="1">
  <advance width="79"/>
  <unicode hex="043D"/>
  <outline>
    <contour>
      <point x="542" y="0" type="line"/>
      <point x="542" y="490" type="line"/>
      <point x="374" y="490" type="line"/>
      <point x="374" y="0" type="line"/>
    </contour>
    <contour>
      <point x="222" y="0" type="line"/>
      <point x="222" y="490" type="line"/>
      <point x="54" y="490" type="line"/>
      <point x="54" y="0" type="line"/>
    </contour>
    <contour>
      <point x="392" y="179" type="line"/>
      <point x="392" y="314" type="line"/>
      <point x="204" y="314" type="line"/>
      <point x="204" y="179" type="line"/>
    </contour>
    <contour>
      <point x="475" y="0" type="move" name="bottomright"/>
    </contour>
  </outline>
</glyph>
<glyph name="uni043E" format="1">
  <advance width="567"/>
  <unicode hex="043E"/>
  <outline>
    <component base="o"/>
    <contour>
      <point x="284" y="490" type="move" name="top"/>
    </contour>
  </outline>
</glyph>
<glyph name="uni043F" format="1">
  <advance width="79"/>
  <unicode hex="043F"/>
  <outline>
    <contour>
      <point x="214" y="0" type="line"/>
      <point x="214" y="352" type="line"/>
      <point x="363" y="352" type="line"/>
      <point x="363" y="0" type="line"/>
      <point x="523" y="0" type="line"/>
      <point x="523" y="490" type="line"/>
      <point x="54" y="490" type="line"/>
      <point x="54" y="0" type="line"/>
    </contour>
    <contour>
      <point x="550" y="0" type="move" name="bottomright"/>
    </contour>
  </outline>
</glyph>
<glyph name="uni0442" format="1">
  <advance width="80"/>
  <unicode hex="0442"/>
  <outline>
    <contour>
      <point x="326" y="0" type="line"/>
      <point x="326" y="460" type="line"/>
      <point x="166" y="460" type="line"/>
      <point x="166" y="0" type="line"/>
    </contour>
    <contour>
      <point x="494" y="355" type="line"/>
      <point x="494" y="490" type="line"/>
      <point x="0" y="490" type="line"/>
      <point x="0" y="355" type="line"/>
    </contour>
    <contour>
      <point x="477" y="0" type="move" name="bottomright"/>
    </contour>
  </outline>
</glyph>
<glyph name="uni0446" format="1">
  <advance width="80"/>
  <unicode hex="0446"/>
  <outline>
    <contour>
      <point x="639" y="-136" type="line"/>
      <point x="639" y="133" type="line"/>
      <point x="220" y="133" type="line"/>
      <point x="220" y="490" type="line"/>
      <point x="54" y="490" type="line"/>
      <point x="54" y="0" type="line"/>
      <point x="483" y="0" type="line"/>
      <point x="483" y="-136" type="line"/>
    </contour>
    <contour>
      <point x="543" y="71" type="line"/>
      <point x="543" y="490" type="line"/>
      <point x="377" y="490" type="line"/>
      <point x="377" y="71" type="line"/>
    </contour>
  </outline>
</glyph>
<glyph name="uni0447" format="1">
  <advance width="78"/>
  <unicode hex="0447"/>
  <outline>
    <contour>
      <point x="264" y="162"/>
      <point x="324" y="185"/>
      <point x="366" y="229" type="curve"/>
      <point x="344" y="331" type="line"/>
      <point x="322" y="318"/>
      <point x="285" y="310"/>
      <point x="258" y="310" type="curve" smooth="yes"/>
      <point x="217" y="310"/>
      <point x="184" y="329"/>
      <point x="184" y="354" type="curve" smooth="yes"/>
      <point x="184" y="490" type="line"/>
      <point x="19" y="490" type="line"/>
      <point x="19" y="315" type="line" smooth="yes"/>
      <point x="19" y="220"/>
      <point x="88" y="162"/>
      <point x="196" y="162" type="curve" smooth="yes"/>
    </contour>
    <contour>
      <point x="493" y="0" type="line"/>
      <point x="493" y="490" type="line"/>
      <point x="325" y="490" type="line"/>
      <point x="325" y="0" type="line"/>
    </contour>
    <contour>
      <point x="274" y="490" type="move" name="top"/>
    </contour>
    <contour>
      <point x="429" y="0" type="move" name="bottomright"/>
    </contour>
  </outline>
</glyph>
<glyph name="uni0448" format="1">
  <advance width="80"/>
  <unicode hex="0448"/>
  <outline>
    <contour>
      <point x="830" y="0" type="line"/>
      <point x="830" y="490" type="line"/>
      <point x="670" y="490" type="line"/>
      <point x="670" y="133" type="line"/>
      <point x="215" y="133" type="line"/>
      <point x="215" y="490" type="line"/>
      <point x="54" y="490" type="line"/>
      <point x="54" y="0" type="line"/>
    </contour>
    <contour>
      <point x="522" y="58" type="line"/>
      <point x="522" y="490" type="line"/>
      <point x="361" y="490" type="line"/>
      <point x="361" y="58" type="line"/>
    </contour>
  </outline>
</glyph>
<glyph name="uni0449" format="1">
  <advance width="80"/>
  <unicode hex="0449"/>
  <outline>
    <contour>
      <point x="931" y="-135" type="line"/>
      <point x="931" y="133" type="line"/>
      <point x="214" y="133" type="line"/>
      <point x="214" y="490" type="line"/>
      <point x="54" y="490" type="line"/>
      <point x="54" y="0" type="line"/>
      <point x="775" y="0" type="line"/>
      <point x="775" y="-135" type="line"/>
    </contour>
    <contour>
      <point x="521" y="68" type="line"/>
      <point x="521" y="490" type="line"/>
      <point x="361" y="490" type="line"/>
      <point x="361" y="68" type="line"/>
    </contour>
    <contour>
      <point x="830" y="68" type="line"/>
      <point x="830" y="490" type="line"/>
      <point x="671" y="490" type="line"/>
      <point x="671" y="68" type="line"/>
    </contour>
  </outline>
</glyph>
<glyph name="uni044E" format="1">
  <advance width="69"/>
  <unicode hex="044E"/>
  <outline>
    <contour>
      <point x="675" y="-7"/>
      <point x="781" y="93"/>
      <point x="781" y="248" type="curve" smooth="yes"/>
      <point x="781" y="400"/>
      <point x="678" y="498"/>
      <point x="522" y="498" type="curve" smooth="yes"/>
      <point x="365" y="498"/>
      <point x="269" y="401"/>
      <point x="269" y="241" type="curve" smooth="yes"/>
      <point x="269" y="85"/>
      <point x="360" y="-7"/>
      <point x="515" y="-7" type="curve" smooth="yes"/>
    </contour>
    <contour>
      <point x="214" y="0" type="line"/>
      <point x="214" y="490" type="line"/>
      <point x="54" y="490" type="line"/>
      <point x="54" y="0" type="line"/>
    </contour>
    <contour>
      <point x="353" y="179" type="line"/>
      <point x="353" y="312" type="line"/>
      <point x="201" y="312" type="line"/>
      <point x="201" y="179" type="line"/>
    </contour>
    <contour>
      <point x="468" y="129"/>
      <point x="433" y="174"/>
      <point x="433" y="248" type="curve" smooth="yes"/>
      <point x="433" y="320"/>
      <point x="464" y="361"/>
      <point x="518" y="361" type="curve" smooth="yes"/>
      <point x="578" y="361"/>
      <point x="616" y="312"/>
      <point x="616" y="241" type="curve" smooth="yes"/>
      <point x="616" y="174"/>
      <point x="581" y="129"/>
      <point x="524" y="129" type="curve" smooth="yes"/>
    </contour>
    <contour>
      <point x="400" y="490" type="move" name="top"/>
    </contour>
  </outline>
</glyph>
<glyph name="uni044F" format="1">
  <advance width="76"/>
  <unicode hex="044F"/>
  <outline>
    <contour>
      <point x="369" y="156" type="line"/>
      <point x="369" y="275" type="line"/>
      <point x="251" y="275" type="line" smooth="yes"/>
      <point x="212" y="275"/>
      <point x="189" y="289"/>
      <point x="189" y="317" type="curve" smooth="yes"/>
      <point x="189" y="341"/>
      <point x="204" y="355"/>
      <point x="230" y="355" type="curve" smooth="yes"/>
      <point x="369" y="355" type="line"/>
      <point x="369" y="490" type="line"/>
      <point x="251" y="490" type="line" smooth="yes"/>
      <point x="117" y="490"/>
      <point x="25" y="418"/>
      <point x="25" y="311" type="curve" smooth="yes"/>
      <point x="25" y="212"/>
      <point x="100" y="156"/>
      <point x="229" y="156" type="curve" smooth="yes"/>
    </contour>
    <contour>
      <point x="189" y="0" type="line"/>
      <point x="326" y="188" type="line"/>
      <point x="158" y="188" type="line"/>
      <point x="-1" y="0" type="line"/>
    </contour>
    <contour>
      <point x="480" y="0" type="line"/>
      <point x="480" y="490" type="line"/>
      <point x="322" y="490" type="line"/>
      <point x="322" y="0" type="line"/>
    </contour>
    <contour>
      <point x="267" y="490" type="move" name="top"/>
    </contour>
  </outline>
</glyph>
<glyph name="uni046A" format="1">
  <advance width="897"/>
  <unicode hex="046A"/>
  <outline>
    <contour>
      <point x="460" y="366" type="line"/>
      <point x="292" y="615" type="line"/>
      <point x="249" y="547" type="line"/>
      <point x="640" y="547" type="line"/>
      <point x="597" y="615" type="line"/>
      <point x="445" y="377" type="line"/>
      <point x="625" y="377" type="line"/>
      <point x="762" y="546" type="line"/>
      <point x="762" y="694" type="line"/>
      <point x="126" y="694" type="line"/>
      <point x="126" y="546" type="line"/>
      <point x="270" y="366" type="line"/>
    </contour>
    <contour>
      <point x="186" y="0" type="line"/>
      <point x="337" y="307" type="line"/>
      <point x="226" y="245" type="line"/>
      <point x="368" y="245" type="line"/>
      <point x="368" y="0" type="line"/>
      <point x="536" y="0" type="line"/>
      <point x="536" y="245" type="line"/>
      <point x="674" y="245" type="line"/>
      <point x="565" y="308" type="line"/>
      <point x="708" y="0" type="line"/>
      <point x="899" y="0" type="line"/>
      <point x="712" y="387" type="line"/>
      <point x="199" y="387" type="line"/>
      <point x="-3" y="0" type="line"/>
    </contour>
  </outline>
</glyph>
<glyph name="uni0490" format="1">
  <advance width="552"/>
  <unicode hex="0490"/>
  <outline>
    <contour>
      <point x="244" y="0" type="line"/>
      <point x="244" y="542" type="line"/>
      <point x="553" y="542" type="line"/>
      <point x="553" y="860" type="line"/>
      <point x="420" y="860" type="line"/>
      <point x="420" y="694" type="line"/>
      <point x="68" y="694" type="line"/>
      <point x="68" y="0" type="line"/>
    </contour>
  </outline>
</glyph>
<glyph name="uni0495" format="1">
  <advance width="80"/>
  <unicode hex="0495"/>
  <outline>
    <contour>
      <point x="214" y="0" type="line"/>
      <point x="214" y="355" type="line"/>
      <point x="423" y="355" type="line"/>
      <point x="423" y="490" type="line"/>
      <point x="54" y="490" type="line"/>
      <point x="54" y="0" type="line"/>
    </contour>
    <contour>
      <point x="143" y="72" type="line"/>
      <point x="165" y="120"/>
      <point x="211" y="149"/>
      <point x="267" y="149" type="curve" smooth="yes"/>
      <point x="332" y="149"/>
      <point x="370" y="105"/>
      <point x="370" y="31" type="curve" smooth="yes"/>
      <point x="370" y="-44"/>
      <point x="338" y="-109"/>
      <point x="291" y="-131" type="curve"/>
      <point x="326" y="-227" type="line"/>
      <point x="454" y="-193"/>
      <point x="539" y="-82"/>
      <point x="539" y="49" type="curve" smooth="yes"/>
      <point x="539" y="200"/>
      <point x="458" y="290"/>
      <point x="320" y="290" type="curve" smooth="yes"/>
      <point x="232" y="290"/>
      <point x="161" y="246"/>
      <point x="122" y="169" type="curve"/>
    </contour>
  </outline>
</glyph>
<glyph name="uni049C" format="1">
  <advance width="710"/>
  <unicode hex="049C"/>
  <outline>
    <contour>
      <point x="707" y="0" type="line"/>
      <point x="502" y="393" type="line"/>
      <point x="505" y="360" type="line"/>
      <point x="699" y="694" type="line"/>
      <point x="509" y="694" type="line"/>
      <point x="324" y="363" type="line"/>
      <point x="510" y="0" type="line"/>
    </contour>
    <contour>
      <point x="242" y="0" type="line"/>
      <point x="242" y="694" type="line"/>
      <point x="67" y="694" type="line"/>
      <point x="67" y="0" type="line"/>
    </contour>
    <contour>
      <point x="380" y="285" type="line"/>
      <point x="380" y="437" type="line"/>
      <point x="151" y="437" type="line"/>
      <point x="151" y="285" type="line"/>
    </contour>
    <contour>
      <point x="351" y="169" type="line"/>
      <point x="351" y="555" type="line"/>
      <point x="271" y="555" type="line"/>
      <point x="271" y="169" type="line"/>
    </contour>
  </outline>
</glyph>
<glyph name="uni049D" format="1">
  <advance width="596"/>
  <unicode hex="049D"/>
  <outline>
    <contour>
      <point x="604" y="0" type="line"/>
      <point x="454" y="278" type="line"/>
      <point x="457" y="249" type="line"/>
      <point x="599" y="490" type="line"/>
      <point x="420" y="490" type="line"/>
      <point x="287" y="251" type="line"/>
      <point x="419" y="0" type="line"/>
    </contour>
    <contour>
      <point x="220" y="0" type="line"/>
      <point x="220" y="490" type="line"/>
      <point x="55" y="490" type="line"/>
      <point x="55" y="0" type="line"/>
    </contour>
    <contour>
      <point x="337" y="176" type="line"/>
      <point x="337" y="313" type="line"/>
      <point x="135" y="313" type="line"/>
      <point x="135" y="176" type="line"/>
    </contour>
    <contour>
      <point x="320" y="78" type="line"/>
      <point x="320" y="418" type="line"/>
      <point x="240" y="418" type="line"/>
      <point x="240" y="78" type="line"/>
    </contour>
  </outline>
</glyph>
<glyph name="uni04A0" format="1">
  <advance width="777"/>
  <unicode hex="04A0"/>
  <outline>
    <contour>
      <point x="779" y="0" type="line"/>
      <point x="554" y="393" type="line"/>
      <point x="557" y="360" type="line"/>
      <point x="771" y="694" type="line"/>
      <point x="581" y="694" type="line"/>
      <point x="376" y="363" type="line"/>
      <point x="582" y="0" type="line"/>
    </contour>
    <contour>
      <point x="344" y="0" type="line"/>
      <point x="344" y="694" type="line"/>
      <point x="169" y="694" type="line"/>
      <point x="169" y="0" type="line"/>
    </contour>
    <contour>
      <point x="432" y="285" type="line"/>
      <point x="432" y="437" type="line"/>
      <point x="253" y="437" type="line"/>
      <point x="253" y="285" type="line"/>
    </contour>
    <contour>
      <point x="344" y="542" type="line"/>
      <point x="344" y="694" type="line"/>
      <point x="6" y="694" type="line"/>
      <point x="6" y="542" type="line"/>
    </contour>
  </outline>
</glyph>
<glyph name="uni04AE" format="1">
  <advance width="653"/>
  <unicode hex="04AE"/>
  <outline>
    <component base="Y"/>
    <contour>
      <point x="334" y="233" type="move" name="center"/>
    </contour>
  </outline>
</glyph>
<glyph name="endash" format="1">
  <advance width="608"/>
  <unicode hex="2013"/>
  <outline>
    <contour>
      <point x="554" y="189" type="line"/>
      <point x="554" y="329" type="line"/>
      <point x="54" y="329" type="line"/>
      <point x="54" y="189" type="line"/>
    </contour>
  </outline>
</glyph>
<glyph name="_bar-cy" format="1">
  <advance width="879"/>
  <outline>
    <contour>
      <point x="746" y="275" type="line"/>
      <point x="746" y="410" type="line"/>
      <point x="133" y="410" type="line"/>
      <point x="133" y="275" type="line"/>
    </contour>
    <contour>
      <point x="440" y="343" type="move" name="_center"/>
    </contour>
  </outline>
</glyph>
<glyph name="_bottomhook" format="1">
  <advance width="613"/>
  <outline>
    <contour>
      <point x="521" y="-197"/>
      <point x="590" y="-111"/>
      <point x="590" y="-13" type="curve" smooth="yes"/>
      <point x="590" y="0" type="line"/>
      <point x="417" y="0" type="line"/>
      <point x="417" y="-25" type="line" smooth="yes"/>
      <point x="417" y="-70"/>
      <point x="395" y="-112"/>
      <point x="362" y="-131" type="curve"/>
      <point x="417" y="-227" type="line"/>
    </contour>
    <contour>
      <point x="503" y="0" type="move" name="_bottom"/>
    </contour>
  </outline>
</glyph>
<glyph name="_slash.zero" format="1">
  <advance width="600"/>
  <outline>
    <contour>
      <point x="401" y="424" type="line"/>
      <point x="326" y="471" type="line"/>
      <point x="45" y="49" type="line"/>
      <point x="114" y="2" type="line"/>
    </contour>
    <contour>
      <point x="223" y="241" type="move" name="_slash"/>
    </contour>
  </outline>
</glyph>
<glyph name="_slash.zero.osf" format="1">
  <advance width="600"/>
  <outline>
    <contour>
      <point x="392" y="429" type="line"/>
      <point x="326" y="471" type="line"/>
      <point x="77" y="96" type="line"/>
      <point x="137" y="54" type="line"/>
    </contour>
    <contour>
      <point x="219" y="241" type="move" name="_slash"/>
    </contour>
  </outline>
</glyph>
<glyph name="_typoquote" format="1">
  <advance width="389"/>
  <outline>
    <contour>
      <point x="220" y="-171" type="line"/>
      <point x="265" y="-80"/>
      <point x="308" y="53"/>
      <point x="308" y="126" type="curve"/>
      <point x="120" y="126" type="line"/>
      <point x="120" y="37"/>
      <point x="102" y="-82"/>
      <point x="74" y="-171" type="curve"/>
    </contour>
  </outline>
</glyph>
<glyph name="acutecomb.loclVIET" format="1">
  <advance width="0"/>
  <outline>
    <contour>
      <point x="259" y="676" type="line"/>
      <point x="142" y="774" type="line"/>
      <point x="22" y="600" type="line"/>
      <point x="97" y="536" type="line"/>
    </contour>
    <contour>
      <point x="111" y="747" type="move" name="top"/>
    </contour>
    <contour>
      <point x="11" y="658" type="move" name="top_dot"/>
    </contour>
    <contour>
      <point x="86" y="489" type="move" name="_top"/>
    </contour>
  </outline>
</glyph>
<glyph name="brevecomb-cy" format="1">
  <advance width="461"/>
  <outline>
    <contour>
      <point x="346" y="547"/>
      <point x="427" y="608"/>
      <point x="442" y="711" type="curve"/>
      <point x="325" y="767" type="line"/>
      <point x="312" y="703"/>
      <point x="278" y="666"/>
      <point x="232" y="666" type="curve" smooth="yes"/>
      <point x="183" y="666"/>
      <point x="145" y="708"/>
      <point x="137" y="771" type="curve"/>
      <point x="18" y="705" type="line"/>
      <point x="33" y="606"/>
      <point x="109" y="547"/>
      <point x="223" y="547" type="curve" smooth="yes"/>
    </contour>
    <contour>
      <point x="217" y="727" type="move" name="top"/>
    </contour>
    <contour>
      <point x="217" y="490" type="move" name="_top"/>
    </contour>
  </outline>
</glyph>
<glyph name="descender-cy.case" format="1">
  <advance width="316"/>
  <outline>
    <contour>
      <point x="98" y="0" type="line"/>
      <point x="98" y="-187" type="line"/>
      <point x="260" y="-187" type="line"/>
      <point x="260" y="151" type="line"/>
      <point x="35" y="151" type="line"/>
      <point x="35" y="0" type="line"/>
    </contour>
    <contour>
      <point x="96" y="0" type="move" name="_bottomright"/>
    </contour>
  </outline>
</glyph>
<glyph name="descender-cy" format="1">
  <advance width="316"/>
  <outline>
    <contour>
      <point x="252" y="-136" type="line"/>
      <point x="252" y="133" type="line"/>
      <point x="47" y="133" type="line"/>
      <point x="47" y="0" type="line"/>
      <point x="96" y="0" type="line"/>
      <point x="96" y="-136" type="line"/>
    </contour>
    <contour>
      <point x="96" y="0" type="move" name="_bottomright"/>
    </contour>
  </outline>
</glyph>
<glyph name="descenderreversed-cy" format="1">
  <advance width="316"/>
  <outline>
    <contour>
      <point x="203" y="-136" type="line"/>
      <point x="203" y="0" type="line"/>
      <point x="252" y="0" type="line"/>
      <point x="252" y="123" type="line"/>
      <point x="47" y="123" type="line"/>
      <point x="47" y="-136" type="line"/>
    </contour>
    <contour>
      <point x="243" y="0" type="move" name="_bottomright"/>
    </contour>
  </outline>
</glyph>
<glyph name="four.dnom" format="1">
  <advance width="74"/>
  <note>
    four
  </note>
  <outline>
    <contour>
      <point x="379" y="-2" type="line"/>
      <point x="379" y="479" type="line"/>
      <point x="237" y="479" type="line"/>
      <point x="3" y="151" type="line"/>
      <point x="3" y="72" type="line"/>
      <point x="470" y="72" type="line"/>
      <point x="470" y="199" type="line"/>
      <point x="78" y="201" type="line"/>
      <point x="122" y="152" type="line"/>
      <point x="251" y="343" type="line"/>
      <point x="233" y="388" type="line"/>
      <point x="233" y="-2" type="line"/>
    </contour>
  </outline>
</glyph>
<glyph name="gravecomb.case" format="1">
  <advance width="305"/>
  <outline>
    <contour>
      <point x="313" y="827" type="line"/>
      <point x="134" y="983" type="line"/>
      <point x="36" y="849" type="line"/>
      <point x="245" y="734" type="line"/>
    </contour>
    <contour>
      <point x="310" y="800" type="move" name="top"/>
    </contour>
    <contour>
      <point x="229" y="694" type="move" name="_top"/>
    </contour>
  </outline>
</glyph>
<glyph name="gravecomb.loclVIET" format="1">
  <advance width="0"/>
  <outline>
    <contour>
      <point x="257" y="604" type="line"/>
      <point x="131" y="774" type="line"/>
      <point x="17" y="672" type="line"/>
      <point x="184" y="537" type="line"/>
    </contour>
    <contour>
      <point x="170" y="747" type="move" name="top"/>
    </contour>
    <contour>
      <point x="176" y="489" type="move" name="_top"/>
    </contour>
  </outline>
</glyph>
<glyph name="hookabovecomb.case" format="1">
  <advance width="324"/>
  <outline>
    <component base="hookabovecomb" yOffset="200"/>
    <contour>
      <point x="155" y="1022" type="move" name="top"/>
    </contour>
    <contour>
      <point x="155" y="694" type="move" name="_top"/>
    </contour>
  </outline>
</glyph>
<glyph name="one.tosf" format="1">
  <advance width="0"/>
  <outline>
    <contour>
      <point x="399" y="126" type="line"/>
      <point x="399" y="594" type="line"/>
      <point x="300" y="594" type="line"/>
      <point x="34" y="473" type="line"/>
      <point x="96" y="355" type="line"/>
      <point x="287" y="422" type="line"/>
      <point x="234" y="475" type="line"/>
      <point x="234" y="126" type="line"/>
    </contour>
    <contour>
      <point x="548" y="0" type="line"/>
      <point x="548" y="141" type="line"/>
      <point x="68" y="141" type="line"/>
      <point x="68" y="0" type="line"/>
    </contour>
  </outline>
</glyph>
<glyph name="periodcentered.loclCAT" format="1">
  <advance width="0"/>
  <outline>
    <contour>
      <point x="16" y="304"/>
      <point x="42" y="331"/>
      <point x="42" y="371" type="curve" smooth="yes"/>
      <point x="42" y="413"/>
      <point x="16" y="440"/>
      <point x="-24" y="440" type="curve" smooth="yes"/>
      <point x="-64" y="440"/>
      <point x="-91" y="413"/>
      <point x="-91" y="371" type="curve" smooth="yes"/>
      <point x="-91" y="331"/>
      <point x="-64" y="304"/>
      <point x="-24" y="304" type="curve" smooth="yes"/>
    </contour>
    <contour>
      <point x="0" y="355" type="move" name="_periodcentered"/>
    </contour>
  </outline>
</glyph>
<glyph name="slashshortcomb.case" format="1">
  <advance width="600"/>
  <outline>
    <contour>
      <point x="471" y="328" type="line"/>
      <point x="406" y="442" type="line"/>
      <point x="20" y="233" type="line"/>
      <point x="86" y="120" type="line"/>
    </contour>
    <contour>
      <point x="227" y="270" type="move" name="_center"/>
    </contour>
  </outline>
</glyph>
<glyph name="tildecomb.case" format="1">
  <advance width="458"/>
  <outline>
    <component base="tildecomb" yOffset="198"/>
    <contour>
      <point x="229" y="939" type="move" name="top"/>
    </contour>
    <contour>
      <point x="229" y="694" type="move" name="_top"/>
    </contour>
  </outline>
</glyph>
<glyph name="tildecomb.loclVIET" format="1">
  <advance width="0"/>
  <outline>
    <contour>
      <point x="140" y="622"/>
      <point x="156" y="636"/>
      <point x="171" y="636" type="curve" smooth="yes"/>
      <point x="198" y="636"/>
      <point x="221" y="604"/>
      <point x="276" y="604" type="curve" smooth="yes"/>
      <point x="344" y="604"/>
      <point x="399" y="654"/>
      <point x="409" y="735" type="curve"/>
      <point x="313" y="760" type="line"/>
      <point x="305" y="736"/>
      <point x="289" y="724"/>
      <point x="273" y="724" type="curve" smooth="yes"/>
      <point x="246" y="724"/>
      <point x="210" y="759"/>
      <point x="161" y="759" type="curve" smooth="yes"/>
      <point x="98" y="759"/>
      <point x="48" y="703"/>
      <point x="35" y="620" type="curve"/>
      <point x="132" y="597" type="line"/>
    </contour>
    <contour>
      <point x="218" y="671" type="move" name="top"/>
    </contour>
    <contour>
      <point x="218" y="490" type="move" name="_top"/>
    </contour>
  </outline>
</glyph>
<glyph name="uni0302.case" format="1">
  <advance width="420"/>
  <outline>
    <component base="uni0302" yOffset="200"/>
    <contour>
      <point x="199" y="912" type="move" name="top"/>
    </contour>
    <contour>
      <point x="389" y="861" type="move" name="top_viet"/>
    </contour>
    <contour>
      <point x="199" y="694" type="move" name="_top"/>
    </contour>
  </outline>
</glyph>
<glyph name="uni0302.loclVIET" format="1">
  <advance width="0"/>
  <outline>
    <contour>
      <point x="89" y="512" type="line"/>
      <point x="198" y="581" type="line"/>
      <point x="302" y="511" type="line"/>
      <point x="398" y="602" type="line"/>
      <point x="251" y="714" type="line"/>
      <point x="166" y="714" type="line"/>
      <point x="20" y="571" type="line"/>
    </contour>
    <contour>
      <point x="204" y="630" type="move" name="top"/>
    </contour>
    <contour>
      <point x="381" y="612" type="move" name="top_viet"/>
    </contour>
    <contour>
      <point x="204" y="490" type="move" name="_top"/>
    </contour>
  </outline>
</glyph>
<glyph name="uni0304.case" format="1">
  <advance width="477"/>
  <outline>
    <component base="uni0304" yOffset="192"/>
    <contour>
      <point x="239" y="902" type="move" name="top"/>
    </contour>
    <contour>
      <point x="239" y="694" type="move" name="_top"/>
    </contour>
  </outline>
</glyph>
<glyph name="uni0304.loclVIET" format="1">
  <advance width="477"/>
  <outline>
    <contour>
      <point x="419" y="550" type="line"/>
      <point x="419" y="685" type="line"/>
      <point x="59" y="685" type="line"/>
      <point x="59" y="550" type="line"/>
    </contour>
    <contour>
      <point x="239" y="684" type="move" name="top"/>
    </contour>
    <contour>
      <point x="239" y="490" type="move" name="_top"/>
    </contour>
  </outline>
</glyph>
<glyph name="uni0304.narrow.case" format="1">
  <advance width="419"/>
  <outline>
    <contour>
      <point x="351" y="767" type="line"/>
      <point x="351" y="902" type="line"/>
      <point x="68" y="902" type="line"/>
      <point x="68" y="767" type="line"/>
    </contour>
    <contour>
      <point x="210" y="902" type="move" name="top"/>
    </contour>
    <contour>
      <point x="210" y="694" type="move" name="_top"/>
    </contour>
  </outline>
</glyph>
<glyph name="uni0304.narrow" format="1">
  <advance width="394"/>
  <outline>
    <contour>
      <point x="332" y="577" type="line"/>
      <point x="332" y="713" type="line"/>
      <point x="62" y="713" type="line"/>
      <point x="62" y="577" type="line"/>
    </contour>
    <contour>
      <point x="197" y="713" type="move" name="top"/>
    </contour>
    <contour>
      <point x="197" y="490" type="move" name="_top"/>
    </contour>
  </outline>
</glyph>
<glyph name="uni0306.case" format="1">
  <advance width="475"/>
  <outline>
    <component base="uni0306" xOffset="5" yOffset="200"/>
    <contour>
      <point x="233" y="892" type="move" name="top"/>
    </contour>
    <contour>
      <point x="233" y="694" type="move" name="_top"/>
    </contour>
  </outline>
</glyph>
<glyph name="uni0308.case" format="1">
  <advance width="550"/>
  <outline>
    <component base="uni0308" yOffset="190"/>
    <contour>
      <point x="275" y="906" type="move" name="top"/>
    </contour>
    <contour>
      <point x="275" y="694" type="move" name="_top"/>
    </contour>
  </outline>
</glyph>
<glyph name="uni0308.loclVIET" format="1">
  <advance width="512"/>
  <outline>
    <contour>
      <point x="190" y="536"/>
      <point x="226" y="572"/>
      <point x="226" y="626" type="curve" smooth="yes"/>
      <point x="226" y="681"/>
      <point x="190" y="717"/>
      <point x="136" y="717" type="curve" smooth="yes"/>
      <point x="82" y="717"/>
      <point x="46" y="681"/>
      <point x="46" y="626" type="curve" smooth="yes"/>
      <point x="46" y="572"/>
      <point x="82" y="536"/>
      <point x="136" y="536" type="curve" smooth="yes"/>
    </contour>
    <contour>
      <point x="430" y="536"/>
      <point x="466" y="572"/>
      <point x="466" y="626" type="curve" smooth="yes"/>
      <point x="466" y="681"/>
      <point x="430" y="717"/>
      <point x="376" y="717" type="curve" smooth="yes"/>
      <point x="322" y="717"/>
      <point x="286" y="681"/>
      <point x="286" y="626" type="curve" smooth="yes"/>
      <point x="286" y="572"/>
      <point x="322" y="536"/>
      <point x="376" y="536" type="curve" smooth="yes"/>
    </contour>
    <contour>
      <point x="256" y="676" type="move" name="top"/>
    </contour>
    <contour>
      <point x="256" y="490" type="move" name="_top"/>
    </contour>
  </outline>
</glyph>
<glyph name="uni030A.case" format="1">
  <advance width="332"/>
  <outline>
    <component base="uni030A" yOffset="192"/>
    <contour>
      <point x="166" y="985" type="move" name="top"/>
    </contour>
    <contour>
      <point x="166" y="694" type="move" name="_top"/>
    </contour>
  </outline>
</glyph>
<glyph name="uni030A_acutecomb.case" format="1">
  <advance width="461"/>
  <outline>
    <contour>
      <point x="447" y="910" type="line"/>
      <point x="374" y="1059" type="line"/>
      <point x="171" y="936" type="line"/>
      <point x="221" y="833" type="line"/>
    </contour>
    <component base="uni030A.case" xOffset="-12"/>
    <contour>
      <point x="161" y="694" type="move" name="_top"/>
    </contour>
  </outline>
</glyph>
<glyph name="uni030A_acutecomb" format="1">
  <advance width="433"/>
  <outline>
    <component base="uni030A" xOffset="-17"/>
    <component base="acutecomb" xOffset="119" yOffset="143"/>
    <contour>
      <point x="156" y="490" type="move" name="_top"/>
    </contour>
  </outline>
</glyph>
<glyph name="uni030B.case" format="1">
  <advance width="574"/>
  <outline>
    <contour>
      <point x="259" y="871" type="line"/>
      <point x="140" y="986" type="line"/>
      <point x="7" y="812" type="line"/>
      <point x="83" y="739" type="line"/>
    </contour>
    <contour>
      <point x="514" y="871" type="line"/>
      <point x="395" y="986" type="line"/>
      <point x="262" y="812" type="line"/>
      <point x="338" y="739" type="line"/>
    </contour>
    <contour>
      <point x="238" y="926" type="move" name="top"/>
    </contour>
    <contour>
      <point x="238" y="694" type="move" name="_top"/>
    </contour>
  </outline>
</glyph>
<glyph name="uni030C.loclVIET" format="1">
  <advance width="0"/>
  <outline>
    <contour>
      <point x="338" y="740" type="line"/>
      <point x="224" y="660" type="line"/>
      <point x="108" y="739" type="line"/>
      <point x="11" y="646" type="line"/>
      <point x="155" y="533" type="line"/>
      <point x="255" y="533" type="line"/>
      <point x="399" y="687" type="line"/>
    </contour>
    <contour>
      <point x="208" y="685" type="move" name="top"/>
    </contour>
    <contour>
      <point x="208" y="490" type="move" name="_top"/>
    </contour>
  </outline>
</glyph>
<glyph name="uni030F.case" format="1">
  <advance width="574"/>
  <outline>
    <contour>
      <point x="514" y="812" type="line"/>
      <point x="381" y="986" type="line"/>
      <point x="262" y="871" type="line"/>
      <point x="438" y="739" type="line"/>
    </contour>
    <contour>
      <point x="259" y="812" type="line"/>
      <point x="126" y="986" type="line"/>
      <point x="7" y="871" type="line"/>
      <point x="183" y="739" type="line"/>
    </contour>
    <contour>
      <point x="283" y="926" type="move" name="top"/>
    </contour>
    <contour>
      <point x="283" y="694" type="move" name="_top"/>
    </contour>
  </outline>
</glyph>
<glyph name="uni0311.case" format="1">
  <advance width="459"/>
  <outline>
    <component base="uni0311" yOffset="170"/>
    <contour>
      <point x="231" y="932" type="move" name="top"/>
    </contour>
    <contour>
      <point x="231" y="694" type="move" name="_top"/>
    </contour>
  </outline>
</glyph>
<glyph name="uni0331.narrow" format="1">
  <advance width="436"/>
  <outline>
    <contour>
      <point x="368" y="-206" type="line"/>
      <point x="368" y="-71" type="line"/>
      <point x="68" y="-71" type="line"/>
      <point x="68" y="-206" type="line"/>
    </contour>
    <contour>
      <point x="218" y="0" type="move" name="_bottom"/>
    </contour>
    <contour>
      <point x="218" y="-206" type="move" name="bottom"/>
    </contour>
  </outline>
</glyph>
<glyph name="zero.dnom" format="1">
  <advance width="74"/>
  <note>
    zero
  </note>
  <outline>
    <contour>
      <point x="384" y="-7"/>
      <point x="474" y="96"/>
      <point x="474" y="242" type="curve" smooth="yes"/>
      <point x="474" y="389"/>
      <point x="383" y="487"/>
      <point x="249" y="487" type="curve" smooth="yes"/>
      <point x="112" y="487"/>
      <point x="19" y="387"/>
      <point x="19" y="238" type="curve" smooth="yes"/>
      <point x="19" y="92"/>
      <point x="110" y="-7"/>
      <point x="245" y="-7" type="curve" smooth="yes"/>
    </contour>
    <contour>
      <point x="202" y="121"/>
      <point x="173" y="172"/>
      <point x="173" y="242" type="curve" smooth="yes"/>
      <point x="173" y="312"/>
      <point x="202" y="359"/>
      <point x="245" y="359" type="curve" smooth="yes"/>
      <point x="290" y="359"/>
      <point x="320" y="309"/>
      <point x="320" y="238" type="curve" smooth="yes"/>
      <point x="320" y="169"/>
      <point x="291" y="121"/>
      <point x="247" y="121" type="curve" smooth="yes"/>
    </contour>
    <contour>
      <point x="247" y="237" type="move" name="slash"/>
    </contour>
  </outline>
</glyph>
<glyph name="zero.tf" format="1">
  <advance width="0"/>
  <outline>
    <contour>
      <point x="454" y="-10"/>
      <point x="565" y="136"/>
      <point x="565" y="349" type="curve" smooth="yes"/>
      <point x="565" y="562"/>
      <point x="455" y="704"/>
      <point x="292" y="704" type="curve" smooth="yes"/>
      <point x="127" y="704"/>
      <point x="15" y="560"/>
      <point x="15" y="344" type="curve" smooth="yes"/>
      <point x="15" y="133"/>
      <point x="125" y="-10"/>
      <point x="288" y="-10" type="curve" smooth="yes"/>
    </contour>
    <contour>
      <point x="230" y="138"/>
      <point x="188" y="222"/>
      <point x="188" y="349" type="curve" smooth="yes"/>
      <point x="188" y="474"/>
      <point x="229" y="556"/>
      <point x="289" y="556" type="curve" smooth="yes"/>
      <point x="350" y="556"/>
      <point x="392" y="471"/>
      <point x="392" y="343" type="curve" smooth="yes"/>
      <point x="392" y="220"/>
      <point x="351" y="138"/>
      <point x="291" y="138" type="curve" smooth="yes"/>
    </contour>
    <contour>
      <point x="292" y="345" type="move" name="slash"/>
    </contour>
  </outline>
</glyph>
<glyph name="zero.tosf" format="1">
  <advance width="0"/>
  <outline>
    <contour>
      <point x="451" y="-8"/>
      <point x="564" y="117"/>
      <point x="564" y="301" type="curve" smooth="yes"/>
      <point x="564" y="482"/>
      <point x="453" y="604"/>
      <point x="293" y="604" type="curve" smooth="yes"/>
      <point x="129" y="604"/>
      <point x="16" y="479"/>
      <point x="16" y="296" type="curve" smooth="yes"/>
      <point x="16" y="115"/>
      <point x="127" y="-8"/>
      <point x="289" y="-8" type="curve" smooth="yes"/>
    </contour>
    <contour>
      <point x="227" y="134"/>
      <point x="184" y="204"/>
      <point x="184" y="299" type="curve" smooth="yes"/>
      <point x="184" y="393"/>
      <point x="226" y="461"/>
      <point x="289" y="461" type="curve" smooth="yes"/>
      <point x="353" y="461"/>
      <point x="396" y="392"/>
      <point x="396" y="296" type="curve" smooth="yes"/>
      <point x="396" y="202"/>
      <point x="354" y="134"/>
      <point x="291" y="134" type="curve" smooth="yes"/>
    </contour>
    <contour>
      <point x="292" y="295" type="move" name="slash"/>
    </contour>
  </outline>
</glyph>
